<svg width="2000" height="668" viewBox="0 0 2000 668" fill="none" xmlns="http://www.w3.org/2000/svg">
<path d="M250.228 181.827C232.148 181.827 214.474 176.495 199.441 166.505C184.408 156.515 172.691 142.317 165.773 125.704C158.854 109.092 157.043 90.8126 160.571 73.1771C164.098 55.5417 172.804 39.3424 185.589 26.628C198.373 13.9135 214.662 5.25482 232.394 1.74691C250.127 -1.761 268.507 0.0394097 285.211 6.92043C301.915 13.8014 316.192 25.454 326.237 40.4047C336.282 55.3553 341.643 72.9325 341.643 90.9134C341.622 115.019 331.984 138.131 314.845 155.176C297.706 172.221 274.467 181.806 250.228 181.827V181.827Z" fill="#FFC700"/>
<path d="M91.4144 340.551C141.901 340.551 182.829 299.848 182.829 249.638C182.829 199.428 141.901 158.725 91.4144 158.725C40.9276 158.725 0 199.428 0 249.638C0 299.848 40.9276 340.551 91.4144 340.551Z" fill="#FFC700"/>
<path d="M250.228 506.796C300.715 506.796 341.643 466.093 341.643 415.883C341.643 365.673 300.715 324.97 250.228 324.97C199.742 324.97 158.814 365.673 158.814 415.883C158.814 466.093 199.742 506.796 250.228 506.796Z" fill="#3A7DFF"/>
<path d="M410.696 666.385C461.182 666.385 502.11 625.682 502.11 575.472C502.11 525.262 461.182 484.559 410.696 484.559C360.209 484.559 319.281 525.262 319.281 575.472C319.281 625.682 360.209 666.385 410.696 666.385Z" fill="#3A7DFF"/>
<path d="M663.159 407.398C668.602 412.938 675.145 417.286 682.371 420.164C689.597 423.043 697.347 424.388 705.125 424.115C712.599 424.386 720.043 423.045 726.949 420.183C733.854 417.322 740.056 413.008 745.132 407.537C755.842 395.265 761.357 379.336 760.519 363.098V190.914H837.316V363.098C837.727 386.347 832.037 409.3 820.81 429.687C810.181 448.657 794.107 464.034 774.647 473.848C752.921 484.528 728.928 489.833 704.705 489.311C680.211 489.842 655.944 484.54 633.923 473.848C614.236 464.051 597.887 448.69 586.921 429.687C575.57 409.348 569.872 386.362 570.415 363.098V190.914H647.212V363.098C646.777 371.167 647.964 379.242 650.702 386.849C653.44 394.456 657.675 401.442 663.159 407.398V407.398Z" fill="white"/>
<path d="M1291.8 190.914H1370.7L1271.24 483.46H1192.34L1136.39 284.111L1080.44 483.46H1000.98L901.943 190.914H984.615L1042.53 404.89L1100.58 190.914H1175.7L1234.45 404.89L1291.8 190.914Z" fill="white"/>
<path d="M1614.52 261.682C1602.61 254.934 1589.19 251.292 1575.49 251.095C1561.2 250.919 1547.15 254.731 1534.92 262.1C1523.02 269.591 1513.36 280.128 1506.95 292.608C1500.05 305.992 1496.45 320.82 1496.45 335.864C1496.45 350.907 1500.05 365.735 1506.95 379.118C1513.36 391.599 1523.02 402.136 1534.92 409.627C1547.14 417.038 1561.19 420.898 1575.49 420.771C1588.61 420.513 1601.5 417.373 1613.26 411.577C1626.44 405.423 1638.39 396.925 1648.51 386.502L1693.42 434.563C1677.22 451.41 1657.88 464.944 1636.48 474.405C1613.79 485.041 1588.88 490.122 1563.81 489.226C1538.75 488.329 1514.27 481.48 1492.4 469.25C1469.12 456.379 1449.78 437.457 1436.45 414.502C1422.88 390.85 1415.92 364.007 1416.3 336.769C1415.89 310.043 1422.84 283.716 1436.41 260.652C1449.97 237.588 1469.63 218.671 1493.24 205.959C1515.42 194.19 1539.96 187.529 1565.07 186.468C1590.18 185.407 1615.2 189.973 1638.3 199.83C1658.72 208.328 1677.15 220.944 1692.44 236.885L1647.95 290.38C1638.87 278.662 1627.5 268.899 1614.52 261.682V261.682Z" fill="white"/>
<path d="M1920.59 256.527C1906.26 251.319 1891.21 248.358 1875.96 247.751C1868.12 247.336 1860.32 249.122 1853.44 252.905C1850.84 254.501 1848.71 256.765 1847.28 259.461C1845.85 262.157 1845.18 265.185 1845.33 268.229C1845.27 271.256 1845.88 274.259 1847.12 277.026C1848.35 279.793 1850.17 282.259 1852.46 284.25C1857.62 288.811 1863.6 292.356 1870.09 294.698C1877.08 297.345 1887.44 300.827 1901.14 305.006C1918.35 309.736 1935.22 315.6 1951.64 322.559C1965.14 328.529 1976.93 337.773 1985.91 349.445C1995.84 363.25 2000.77 379.995 1999.9 396.949C2000.41 414.827 1994.95 432.367 1984.38 446.822C1973.62 460.956 1959.07 471.774 1942.41 478.026C1923.19 485.204 1902.79 488.747 1882.26 488.474C1857.41 488.366 1832.76 484.031 1809.38 475.658C1786.54 467.932 1765.31 456.13 1746.71 440.831L1776.51 381.068C1792.11 394.652 1809.89 405.53 1829.1 413.248C1846.12 420.869 1864.46 425.127 1883.1 425.786C1892.51 426.283 1901.87 424.109 1910.1 419.517C1913.26 417.621 1915.85 414.913 1917.59 411.678C1919.34 408.443 1920.18 404.799 1920.03 401.129C1920.09 397.973 1919.45 394.843 1918.17 391.956C1916.89 389.07 1915 386.495 1912.61 384.412C1907.24 379.65 1900.96 376.003 1894.15 373.685C1886.74 371.038 1876.38 367.973 1862.96 364.352C1845.94 359.831 1829.25 354.153 1813.02 347.356C1799.78 341.598 1788.16 332.702 1779.16 321.445C1769.25 308.166 1764.3 291.858 1765.18 275.334C1764.69 258.383 1769.59 241.713 1779.16 227.691C1789.55 213.446 1803.82 202.471 1820.29 196.068C1840.01 188.354 1861.08 184.613 1882.26 185.063C1903.56 185.036 1924.76 188.038 1945.21 193.978C1964.47 199.349 1982.84 207.467 1999.76 218.079L1970.81 279.095C1954.92 269.813 1938.09 262.248 1920.59 256.527V256.527Z" fill="white"/>
</svg>
